<?xml version="1.0" encoding="UTF-8"?>
<svg id="pixel2" xmlns="http://www.w3.org/2000/svg" viewBox="0 0 512 512">
  <defs>
    <style>
      .cls-1 {
        fill: #566c85;
        stroke-width: 0px;
      }
    </style>
  </defs>
  <path class="cls-1" d="M385.13,55.34c4.97,0,9-3.95,9-8.82v-25.36c0-4.87-4.03-8.82-9-8.82s-9,3.95-9,8.82v25.36c0,4.87,4.03,8.82,9,8.82Z"/>
  <path class="cls-1" d="M421.1,27.81c4.95,0,8.96-3.93,8.96-8.77v-9.46c0-4.85-4.01-8.77-8.96-8.77s-8.96,3.93-8.96,8.77v9.46c0,4.85,4.01,8.77,8.96,8.77Z"/>
  <path class="cls-1" d="M222.63,268.53c-1.57-1.27-3.48-1.91-5.76-1.91h-7.02v43.39h7.02c3.12,0,5.57-1.21,7.35-3.6.34-.45.66-.92.94-1.46,1.82-3.37,2.74-8.92,2.74-16.64s-.91-13.26-2.74-16.64c-.7-1.3-1.55-2.35-2.54-3.15Z"/>
  <path class="cls-1" d="M251.45,353.65c-.85-.59-1.82-.9-2.9-.9h-5.35v15.73h5.5c1.4,0,2.62-.59,3.68-1.78s1.59-3.28,1.59-6.28c0-2.84-.53-4.83-1.59-5.97-.29-.31-.61-.58-.94-.8Z"/>
  <path class="cls-1" d="M156.07,305.49c1.82,3.43,4.65,5.15,8.48,5.15s6.47-1.72,8.3-5.15c.91-1.71,1.59-4.01,2.05-6.88.46-2.88.69-6.35.69-10.39,0-2.61-.1-4.96-.29-7.08-.39-4.44-1.18-7.82-2.4-10.1-1.79-3.37-4.57-5.06-8.34-5.06s-6.65,1.69-8.48,5.06c-1.25,2.31-2.06,5.74-2.45,10.25-.18,2.09-.28,4.38-.28,6.94,0,4.11.24,7.62.71,10.53.46,2.81,1.13,5.06,2.02,6.75Z"/>
  <path class="cls-1" d="M320.85,354.61h-.39c-.26,2.01-.57,3.85-.93,5.5l-4.11,18.06h10.54l-4.18-18.06c-.36-1.65-.67-3.49-.93-5.5Z"/>
  <path class="cls-1" d="M479.67,112.86h-28.88v-28.22c0-4.97-4.03-9-9-9h-11.66v-21c0-4.87-4.03-8.82-9-8.82s-9,3.95-9,8.82v21h-18.34c0-4.88-4.03-8.83-9-8.83s-9,3.95-9,8.82h0s-2.39,0-2.39,0h-15.27v-25.48c0-4.91-4.03-8.89-9-8.89s-9,3.98-9,8.89v25.48h-64.34c-4.97,0-9,4.03-9,9v7.42c-3.06-2.96-6.18-5.88-9.43-8.71-13.72-11.98-28.36-22.31-43.5-30.83,28.88-6.23,59.01-6.23,88.71.33,3.26.72,6.51-.44,8.61-2.75,1.02-1.12,1.77-2.51,2.12-4.1,1.07-4.85-1.99-9.66-6.85-10.73-58.99-13.03-119.52-2.3-170.44,30.2-50.92,32.5-86.14,82.89-99.17,141.87-13.03,58.99-2.3,119.52,30.2,170.44,32.5,50.92,82.88,86.14,141.87,99.17,16.37,3.62,32.85,5.4,49.22,5.4,42.62,0,84.43-12.11,121.22-35.6,41.1-26.23,71.96-64.11,89.19-108.76h11.13c4.97,0,9-4.03,9-9V121.86c0-4.97-4.03-9-9-9ZM284.79,139.5v-45.86h148v19.22h-116c-4.97,0-9,4.03-9,9v119.29c-1.03-.44-2.07-.87-3.11-1.29-6.5-2.68-13.13-5.16-19.89-7.43v-92.93ZM275.79,256.4h3.88c.85,0,1.46.32,1.82.96.36.64.55,1.63.55,2.96v2.37c0,1.34-.18,2.32-.55,2.96-.37.64-.97.96-1.82.96h-17.59v15.86h15.68c.85,0,1.46.32,1.82.96.36.64.55,1.63.55,2.96v2.37c0,.25-.01.47-.03.69-.05.99-.22,1.75-.52,2.27-.36.64-.97.96-1.82.96h-15.68v17.32h17.68c.79,0,1.37.3,1.73.91.22.37.37.91.46,1.59.05.42.09.88.09,1.42v2.37c0,1.4-.18,2.4-.55,3.01-.37.61-.94.91-1.73.91h-26.71c-1.09,0-1.88-.26-2.37-.77-.49-.52-.73-1.38-.73-2.6v-57.06c0-1.21.24-2.08.73-2.6.49-.52,1.28-.78,2.37-.78h22.73ZM266.79,121.63v105.35c-11.14-3.01-22.31-5.4-33.48-7.14-3.07-16.56-6.84-33.39-11.12-49.85-1.72-6.59-3.53-13.19-5.44-19.75,19.56-6.5,36.76-16.29,50.04-28.61ZM189.17,59.49c19.79,9.11,39.02,21.6,56.7,37.01,3.86,3.38,7.57,6.84,11.17,10.39-11.47,11.32-27.32,20.42-45.4,26.53-8.34-26.16-17.99-50.99-28.37-71.77,1.96-.75,3.92-1.47,5.9-2.16ZM151.39,77.15c5.2-3.09,10.5-5.95,15.89-8.56,9.07,18.2,18.58,41.35,27.55,69.51-9.04,1.97-18.46,3.2-28,3.62-12.92.58-25.53-.16-37.45-2.08,6.2-22.88,13.68-44.09,22.01-62.49ZM167.59,159.17c11.1-.49,21.93-2,32.33-4.32,1.84,6.29,3.63,12.8,5.39,19.53,3.98,15.29,7.22,29.7,9.83,43.19-34.57-3.32-68.84-.74-101.59,7.09,1.59-15.79,4.11-32.77,7.76-50.82,1.18-5.81,2.44-11.54,3.77-17.2,13.56,2.3,27.88,3.18,42.51,2.53ZM125.04,95.66c-4.66,12.69-8.93,26.2-12.73,40.31-6.9-1.91-13.43-4.26-19.54-7.04,9.41-12.19,20.22-23.35,32.27-33.27ZM95.7,229.5c-15.83,4.79-31.23,10.83-46.05,18.03.53-12.1,2.1-24.23,4.77-36.3,5.41-24.48,14.97-47.33,28.14-67.81,7.89,3.81,16.42,6.98,25.47,9.46-1.35,5.76-2.63,11.6-3.81,17.5-3.96,19.57-6.85,39.63-8.51,59.11ZM107.2,263.79c1.22-1.63,2.64-3.01,4.26-4.14,3.69-2.58,8.41-3.88,14.15-3.88,3.34,0,6.14.4,8.39,1.18.91.3,1.55.76,1.91,1.37.37.61.52,1.4.46,2.37,0,1.82-.35,3.54-1.05,5.15-.7,1.61-1.6,2.17-2.69,1.69-2.07-.85-4.25-1.28-6.56-1.28-4.19,0-7.31,1.81-9.34,5.42-.87,1.55-1.55,3.47-2.05,5.71-.67,3-1.01,6.59-1.01,10.83,0,2.47.12,4.72.35,6.77.45,4.15,1.35,7.45,2.71,9.87,2.04,3.62,5.24,5.42,9.62,5.42,1.34,0,2.51-.12,3.51-.36,1-.24,2.14-.58,3.42-1,.36-.12.64-.18.82-.18,1.03,0,1.82.68,2.37,2.05.55,1.37.82,3.02.82,4.97,0,.85-.17,1.57-.5,2.14-.34.58-.99,1.05-1.96,1.41-1.03.43-2.4.79-4.1,1.09-1.7.3-3.5.46-5.38.46-3.06,0-5.82-.35-8.28-1.06-4.27-1.22-7.64-3.49-10.09-6.83-3.86-5.26-5.79-13.51-5.79-24.75s2.01-19.08,6.02-24.43ZM137.65,349.42c0,.46-.03.84-.08,1.2-.08.58-.22,1.04-.42,1.36-.34.52-.87.78-1.59.78h-9.46v43.48c0,1.5-1.32,2.25-3.95,2.25h-2.48c-2.63,0-3.95-.75-3.95-2.25v-43.48h-9.46c-.72,0-1.24-.27-1.55-.81-.31-.54-.46-1.38-.46-2.52v-2.01c0-1.14.15-1.98.46-2.52.31-.54.83-.81,1.55-.81h29.29c.72,0,1.25.26,1.59.77.33.52.5,1.37.5,2.56v2.01ZM140.93,288.22c0-2.69.12-5.21.36-7.57,1.71-16.59,9.43-24.88,23.15-24.88s21.26,8.19,23.03,24.57c.26,2.44.4,5.07.4,7.88,0,3.5-.21,6.72-.61,9.65-2.11,15.32-9.71,22.98-22.82,22.98s-20.69-7.57-22.86-22.69c-.43-3.02-.66-6.33-.66-9.94ZM171.82,349.42c0,1.14-.15,1.98-.46,2.52-.31.54-.83.81-1.55.81h-14.96v13.48h13.33c.72,0,1.24.27,1.55.81.31.54.46,1.38.46,2.52v2.01c0,1.14-.16,1.98-.46,2.52-.31.54-.83.81-1.55.81h-13.33v14.72h15.04c.67,0,1.16.26,1.47.77.31.52.46,1.37.46,2.56v2.02c0,1.19-.15,2.04-.46,2.56-.31.52-.8.78-1.47.78h-22.71c-.93,0-1.6-.22-2.02-.66-.41-.44-.62-1.17-.62-2.21v-48.51c0-1.03.21-1.77.62-2.21.41-.44,1.09-.66,2.02-.66h22.63c.72,0,1.24.27,1.55.81s.46,1.38.46,2.52v2.01ZM223.67,364.08v32.15c0,.78-.31,1.34-.93,1.71-.62.36-1.63.54-3.02.54h-2.01c-1.4,0-2.4-.18-3.02-.54-.62-.36-.93-.93-.93-1.71v-29.76c0-1.08.16-2.66.46-4.73l-.31-.08c-.67,1.76-1.32,3.15-1.94,4.19l-.7,1.35-6.12,11.83c-.31.57-.66.97-1.05,1.2-.39.23-.92.35-1.59.35h-1.78c-.67,0-1.21-.12-1.63-.35-.41-.23-.75-.63-1.01-1.2l-4.64-8.86-2.26-4.32c-.31-.57-.65-1.29-1.01-2.17-.36-.88-.65-1.55-.85-2.02l-.31.08c.31,2.07.46,3.64.46,4.73v29.76c0,.78-.31,1.34-.93,1.71-.62.36-1.63.54-3.02.54h-2.09c-1.4,0-2.4-.18-3.02-.54-.62-.36-.93-.93-.93-1.71v-50.06c0-.77.31-1.34.93-1.7s1.63-.54,3.02-.54h2.17c1.08,0,1.94.16,2.56.46.62.31,1.11.8,1.47,1.47l3.52,6.72,7.1,13.58c.3.6.68,1.59,1.12,2.91.09.26.18.52.27.81.06-.3.13-.6.21-.9.26-.97.63-1.91,1.11-2.82l8.84-17.04,1.7-3.27c.36-.67.87-1.16,1.51-1.47.64-.31,1.51-.46,2.6-.46h2.09c1.4,0,2.4.18,3.02.54s.93.93.93,1.7v17.92ZM217.23,320.21h-16.59c-1.09,0-1.88-.26-2.37-.77-.49-.52-.73-1.38-.73-2.6v-57.06c0-1.21.24-2.08.73-2.6.49-.52,1.28-.78,2.37-.78h16.59c1.44,0,2.81.09,4.11.27,5.69.79,10.09,3.3,13.21,7.52,3.83,5.2,5.74,13.23,5.74,24.11s-1.91,18.92-5.74,24.11c-2.7,3.67-6.39,6.04-11.03,7.12-1.93.45-4.02.68-6.29.68ZM261.41,370.81c-1.76,2.48-3.72,4.15-5.89,5s-4.11,1.28-5.81,1.28h-6.43v19.14c0,1.5-1.34,2.25-4.03,2.25h-2.09c-2.74,0-4.11-.75-4.11-2.25v-49.29c0-.98.22-1.71.66-2.17.44-.46,1.15-.7,2.13-.7h13.17c3.93,0,7.41,1.15,10.46,3.45.52.39.98.87,1.41,1.38,2.1,2.47,3.16,6.3,3.16,11.53,0,4.44-.88,7.91-2.63,10.39ZM296.13,394.99c0,1.14-.15,1.98-.46,2.52-.31.54-.83.81-1.55.81h-20.85c-.93,0-1.6-.22-2.01-.66-.41-.44-.62-1.17-.62-2.21v-49.29c0-1.5,1.32-2.25,3.95-2.25h2.4c1.4,0,2.4.18,3.02.54.62.36.93.93.93,1.7v43.48h13.17c.72,0,1.24.27,1.55.81.31.54.46,1.38.46,2.52v2.02ZM336.66,398.47h-3.1c-2.22,0-3.44-.49-3.64-1.47l-2.48-10.62h-13.48l-2.48,10.62c-.21.98-1.32,1.47-3.33,1.47h-3.1c-2.27,0-3.41-.52-3.41-1.55,0-.16.05-.59.15-1.32l12.71-49.75c.31-1.29,1.71-1.94,4.18-1.94h4.11c2.48,0,3.9.65,4.26,1.94l12.63,49.75c.1.72.16,1.16.16,1.32,0,1.03-1.06,1.55-3.18,1.55ZM373.01,349.42c0,1.19-.17,2.04-.5,2.56-.34.52-.87.78-1.59.78h-9.46v43.48c0,1.5-1.32,2.25-3.95,2.25h-2.48c-2.63,0-3.95-.75-3.95-2.25v-43.48h-9.46c-.72,0-1.24-.27-1.55-.81-.31-.54-.46-1.38-.46-2.52v-2.01c0-1.14.15-1.98.46-2.52s.83-.81,1.55-.81h29.29c.72,0,1.25.26,1.59.77.33.52.5,1.37.5,2.56v2.01ZM406.18,349.42c0,1.14-.15,1.98-.46,2.52-.31.54-.83.81-1.55.81h-14.96v13.48h13.33c.72,0,1.24.27,1.55.81.31.54.46,1.38.46,2.52v2.01c0,1.14-.15,1.98-.46,2.52-.31.54-.83.81-1.55.81h-13.33v14.72h15.03c.67,0,1.16.26,1.47.77.31.52.46,1.37.46,2.56v2.02c0,1.19-.15,2.04-.46,2.56-.31.52-.8.78-1.47.78h-22.71c-.93,0-1.6-.22-2.01-.66-.41-.44-.62-1.17-.62-2.21v-48.51c0-1.03.21-1.77.62-2.21.41-.44,1.08-.66,2.01-.66h22.63c.72,0,1.24.27,1.55.81.31.54.46,1.38.46,2.52v2.01ZM442.67,351.74c-3.19-4.67-6.52-9.24-9.96-13.74h16.41c-1.99,4.67-4.14,9.25-6.45,13.74ZM470.67,205.68v114.32h-144.88v-189.14h144.88v74.82Z"/>
  <path class="cls-1" d="M386.63,221.23c1.05.4,2.14.59,3.2.59,3.63,0,7.04-2.21,8.41-5.8l14.12-37.02,6.58-17.25c1.07-2.8.64-5.8-.89-8.13-1-1.53-2.47-2.78-4.32-3.48-4.64-1.77-9.84.56-11.62,5.2l-20.69,54.27c-1.77,4.64.56,9.84,5.2,11.62Z"/>
  <path class="cls-1" d="M441.79,164.06l-2.23-2.28c-1.85-1.89-4.32-2.78-6.77-2.69-1.02.04-2.03.24-3,.62-1.08.43-2.09,1.07-2.96,1.93-3.55,3.48-3.62,9.17-.14,12.73l3.37,3.45,2.73,2.79,4.12,4.21-4.12,4.21-2.73,2.79-3.37,3.45c-3.48,3.55-3.41,9.25.14,12.73.95.93,2.06,1.6,3.23,2.02.88.32,1.8.49,2.73.53.11,0,.22.02.33.02,2.34,0,4.67-.9,6.44-2.71l2.23-2.28,9-9.2,5.14-5.25c3.42-3.5,3.42-9.09,0-12.59l-5.14-5.25-9-9.2Z"/>
  <path class="cls-1" d="M357.36,203.17l4.57,4.67c1.76,1.8,4.1,2.71,6.44,2.71s4.54-.85,6.29-2.57c3.55-3.48,3.62-9.17.14-12.73l-10.22-10.45,10.22-10.45c3.48-3.55,3.41-9.25-.14-12.73-3.55-3.47-9.25-3.41-12.73.14l-4.35,4.45-12.03,12.3c-3.42,3.5-3.42,9.09,0,12.59l11.8,12.07Z"/>
  <path class="cls-1" d="M404.31,275.49h-49.88c-3.52,0-6.56,2.02-8.04,4.97-.61,1.21-.96,2.58-.96,4.03,0,1.84.55,3.54,1.5,4.97,1.61,2.43,4.37,4.03,7.5,4.03h49.88c3.13,0,5.89-1.6,7.5-4.03.94-1.42,1.5-3.13,1.5-4.97,0-1.45-.35-2.82-.96-4.03-1.48-2.94-4.52-4.97-8.04-4.97Z"/>
  <path class="cls-1" d="M432.79,241.43c-.5-.09-1.02-.14-1.55-.14h-76.82c-2.26,0-4.32.84-5.9,2.22-1.89,1.65-3.1,4.07-3.1,6.78,0,.48.05.94.12,1.4.67,4.31,4.39,7.6,8.88,7.6h76.82c.53,0,1.05-.05,1.55-.14,4.23-.74,7.45-4.42,7.45-8.86s-3.22-8.12-7.45-8.86Z"/>
</svg>