<?xml version="1.0" encoding="UTF-8"?>
<svg id="pixel2" xmlns="http://www.w3.org/2000/svg" viewBox="0 0 512 512">
  <defs>
    <style>
      .cls-1 {
        fill: #2babe2;
        stroke-width: 0px;
      }
    </style>
  </defs>
  <path class="cls-1" d="M329.76,396.24c3.71,0,6.48-1.72,8.31-5.16,1.83-3.44,2.74-9.2,2.74-17.3s-.9-13.83-2.69-17.21c-1.8-3.38-4.58-5.07-8.35-5.07s-6.66,1.69-8.49,5.07c-1.82,3.38-2.74,9.11-2.74,17.21s.91,13.86,2.74,17.3c1.83,3.44,4.66,5.16,8.49,5.16Z"/>
  <path class="cls-1" d="M245.06,360.82c-.32-1.48-.61-3.08-.86-4.8-.08-.55-.16-1.11-.23-1.68h-.46c-.09.71-.19,1.4-.29,2.07-.24,1.57-.51,3.05-.8,4.41l-4.84,21.27h12.41l-4.93-21.27Z"/>
  <path class="cls-1" d="M201.98,272.72v41.13h6.65c3.51,0,6.13-1.6,7.86-4.8,1.73-3.2,2.59-8.45,2.59-15.77,0-.32-.01-.62-.01-.93-.07-6.82-.93-11.78-2.58-14.84-.45-.84-.97-1.56-1.54-2.17-1.62-1.74-3.73-2.62-6.32-2.62h-6.65Z"/>
  <path class="cls-1" d="M166.95,276.91c-1.7-3.2-4.33-4.8-7.91-4.8s-6.31,1.6-8.04,4.8c-.32.6-.61,1.31-.87,2.06-1.14,3.28-1.72,8-1.72,14.22,0,1.11.02,2.15.06,3.17.21,6.01,1.05,10.42,2.53,13.21,1.73,3.25,4.41,4.88,8.04,4.88s6.13-1.63,7.86-4.88c1.44-2.71,2.27-6.97,2.51-12.73.05-1.16.08-2.36.08-3.64,0-5.95-.52-10.53-1.54-13.79-.29-.94-.63-1.78-1.01-2.5Z"/>
  <path class="cls-1" d="M164.55,360.82c-.43-1.95-.79-4.11-1.1-6.48h-.46c-.3,2.37-.67,4.53-1.1,6.48l-1.83,8.06-3,13.21h12.41l-2.97-12.82-1.96-8.45Z"/>
  <path class="cls-1" d="M501.83,344.78l-25.09-33.74c.48-1.95.95-3.9,1.38-5.87,4.43-20.05,6.13-40.53,5.05-60.85-.26-4.96-4.53-8.79-9.46-8.51-.39.02-.78.07-1.15.14-4.39.8-7.6,4.75-7.36,9.32.82,15.5-.12,31.1-2.79,46.5l-25.45-34.22c8.2-13.19,13.37-28.18,15.02-44.08,2.87-27.62-5.19-54.7-22.69-76.26-9.96-12.27-22.16-21.67-35.54-28.1l.02-24.53.02-20.31c0-4.87-4.03-8.82-9-8.82s-9,3.95-9,8.82v7.03s-.03,31.13-.03,31.13c-5.9-1.59-11.93-2.66-18.01-3.2v-17.86c0-4.91-4.03-8.89-9-8.89s-9,3.98-9,8.89v17.82c-16.16,1.35-32.13,6.49-46.51,15.54-2.87-3.58-5.85-7.1-8.95-10.56-2.44-3.19-3.93-4.4-12.44-12.92-3.45-3.37-6.99-6.68-10.67-9.88-13.16-11.49-27.17-21.45-41.65-29.76,27.01-4.98,55-4.55,82.62,1.55,4.85,1.07,9.66-1.99,10.73-6.85.25-1.13.27-2.26.1-3.34-.56-3.55-3.22-6.57-6.94-7.39-58.99-13.03-119.52-2.31-170.44,30.19-50.92,32.5-86.14,82.88-99.17,141.87-13.03,58.99-2.3,119.52,30.2,170.44,32.5,50.92,82.88,86.14,141.87,99.17,16.37,3.62,32.85,5.4,49.22,5.4,42.62,0,84.43-12.11,121.23-35.6,28.94-18.47,52.8-42.73,70.41-71.05l3.62,4.87c3.82,5.18,9.44,8.56,15.8,9.52,1.22.18,2.44.27,3.65.27,5.11,0,10.07-1.62,14.26-4.71l10.07-7.43c10.7-7.89,12.98-23.02,5.06-33.74ZM486.08,364.04l-10.07,7.43c-1.31.97-2.92,1.36-4.54,1.12-1.61-.24-3.04-1.1-4.02-2.44l-8.43-11.34-8.01-10.77-4.14-5.57-39.94-53.71c2.45-1.67,4.84-3.45,7.17-5.33,2.71-2.2,5.3-4.52,7.75-6.95,1.31-1.29,2.58-2.62,3.81-3.98l16.39,22.04,15.04,20.23,4.85,6.52,8.35,11.22,17.08,22.98c2,2.71,1.42,6.54-1.29,8.54ZM54.02,211.51c5.7-25.8,16.01-49.8,30.29-71.11,8.45,4.28,17.71,7.78,27.55,10.48-1.35,5.76-2.63,11.6-3.81,17.5-4.31,21.31-7.35,43.2-8.92,64.29-17.48,7.71-34.24,17-50.04,27.78-.29-16.26,1.33-32.67,4.92-48.95ZM348.76,162.41c4.97,0,9-3.98,9-8.89v-36.23c21.79,2.34,42.7,12.93,57.57,31.25,14.47,17.83,21.13,40.22,18.76,63.06-1.11,10.68-4.15,20.84-8.88,30.13-1.48,2.91-3.12,5.74-4.93,8.46-1.73,2.6-3.6,5.12-5.61,7.53-2.24,2.68-4.67,5.22-7.25,7.64-1.5,1.41-3.04,2.78-4.65,4.09-2.13,1.73-4.33,3.34-6.58,4.84-2.52,1.68-5.12,3.23-7.78,4.62-2.73,1.43-5.53,2.7-8.37,3.82-12.66,4.99-26.41,6.92-40.33,5.47-17.52-1.82-33.68-8.81-46.8-20.01-3.98-3.4-7.69-7.17-11.05-11.31-.51-.63-.98-1.27-1.47-1.91-10.43-13.59-16.44-29.65-17.55-46.47-.32-4.85-.25-9.75.26-14.68,2.18-20.95,11.74-39.96,27.07-54.14,1.38-1.27,2.79-2.52,4.26-3.72,1.29-1.05,2.61-2.04,3.95-3,12.56-9.06,26.86-14.24,41.4-15.72v36.26c0,4.91,4.03,8.89,9,8.89ZM329.67,341.29c15.64,0,23.46,10.83,23.46,32.49s-7.82,32.68-23.46,32.68-23.55-10.89-23.55-32.68,7.85-32.49,23.55-32.49ZM272.72,344.39c0-1.76,1.55-2.65,4.65-2.65h2.83c1.64,0,2.83.21,3.56.64.73.43,1.09,1.1,1.09,2.01v51.21h15.52c.85,0,1.46.32,1.83.96s.55,1.63.55,2.97v2.37c0,1.34-.18,2.33-.55,2.97-.37.64-.97.96-1.83.96h-24.55c-1.1,0-1.89-.26-2.37-.78-.49-.52-.73-1.38-.73-2.6v-58.05ZM402.24,399.43c0,2.13-1.84,3.83-5.52,5.11-3.68,1.28-7.59,1.92-11.73,1.92-8.21,0-14.32-2.65-18.3-7.94-3.99-5.29-5.98-13.48-5.98-24.55s2.04-19.21,6.12-24.6c4.08-5.39,10.28-8.08,18.62-8.08,2.56,0,5.07.3,7.53.91,2.46.61,4.46,1.4,5.98,2.37,1.52.97,2.28,1.95,2.28,2.92,0,1.1-.58,2.56-1.73,4.38-1.16,1.83-2.19,2.74-3.1,2.74-.24,0-.9-.27-1.96-.82s-2.27-1.02-3.61-1.42c-1.34-.4-2.95-.59-4.84-.59-4.5,0-7.76,1.8-9.77,5.39-2.01,3.59-3.01,9.1-3.01,16.52s.97,13.14,2.92,16.79c1.95,3.65,4.93,5.48,8.95,5.48,2.07,0,3.83-.21,5.29-.64v-15.79h-5.75c-.85,0-1.46-.32-1.83-.96-.36-.64-.55-1.63-.55-2.97v-2.37c0-1.34.18-2.33.55-2.97.37-.64.97-.96,1.83-.96h14.51c2.07,0,3.1,1.1,3.1,3.29v26.83ZM263.92,263.04h4.25c.81,0,1.38.3,1.73.91.35.61.52,1.54.52,2.81v2.25c0,.8-.08,1.46-.22,1.99-.08.31-.18.59-.3.81-.35.61-.92.91-1.73.91h-16.68v15.03h14.86c.81,0,1.38.3,1.73.91s.52,1.54.52,2.81v2.25c0,1.27-.17,2.2-.52,2.81-.35.61-.92.91-1.73.91h-14.86v16.42h16.76c.75,0,1.3.29,1.64.86.35.58.52,1.53.52,2.85v2.25c0,1.33-.17,2.28-.52,2.85-.03.05-.07.09-.1.13-.26.35-.6.59-1.03.68-.16.03-.33.05-.51.05h-25.32c-1.04,0-1.79-.24-2.25-.73-.46-.49-.69-1.31-.69-2.46v-54.09c0-1.15.23-1.97.69-2.46.46-.49,1.21-.73,2.25-.73h20.98ZM241.41,341.75h4.84c2.92,0,4.59.76,5.02,2.28l2.05,8.07,12.83,50.53c.12.85.18,1.37.18,1.55,0,1.22-1.25,1.83-3.74,1.83h-3.65c-2.62,0-4.05-.58-4.29-1.73l-2.92-12.5h-15.88l-2.92,12.5c-.24,1.16-1.55,1.73-3.93,1.73h-3.65c-2.68,0-4.02-.61-4.02-1.83,0-.18.06-.7.18-1.55l10.81-42.32,4.16-16.28c.36-1.52,2.01-2.28,4.93-2.28ZM185.64,402.63c.12.85.18,1.37.18,1.55,0,1.22-1.25,1.83-3.74,1.83h-3.65c-2.62,0-4.05-.58-4.29-1.73l-2.92-12.5h-15.88l-2.92,12.5c-.24,1.16-1.55,1.73-3.92,1.73h-3.65c-2.68,0-4.02-.61-4.02-1.83,0-.18.06-.7.18-1.55l8.9-34.83,4.36-17.05,1.72-6.72c.36-1.52,2.01-2.28,4.93-2.28h4.84c2.92,0,4.59.76,5.02,2.28l2.01,7.92,4.43,17.47,8.43,33.21ZM115.4,390.44c2.04,3.62,5.25,5.43,9.63,5.43,1.34,0,2.51-.12,3.51-.37,1-.24,2.15-.58,3.42-1,.37-.12.64-.18.82-.18,1.03,0,1.83.68,2.37,2.05s.82,3.03.82,4.97c0,.85-.17,1.57-.5,2.15-.33.58-.99,1.05-1.96,1.41-1.04.43-2.4.79-4.11,1.1s-3.5.46-5.38.46c-8.4,0-14.53-2.63-18.39-7.9-3.87-5.26-5.8-13.52-5.8-24.78,0-7.58.96-13.82,2.89-18.71.86-2.18,1.9-4.1,3.14-5.75,4.02-5.35,10.16-8.03,18.44-8.03,2.7,0,5.02.27,7.01.78.48.12.96.25,1.39.4.91.3,1.55.76,1.92,1.37.32.53.46,1.2.46,2,0,.12,0,.24,0,.37,0,1.83-.35,3.55-1.05,5.16-.7,1.61-1.6,2.18-2.69,1.69-2.07-.85-4.26-1.28-6.57-1.28-4.2,0-7.32,1.81-9.36,5.43-.38.68-.71,1.44-1.02,2.25-1.35,3.52-2.04,8.28-2.04,14.32,0,7.48,1.02,13.04,3.06,16.66ZM115.26,263.22c2.09-.52,4.39-.78,6.89-.78,3.17,0,5.82.38,7.95,1.12.86.29,1.47.72,1.81,1.3.35.58.49,1.33.43,2.25,0,1.73-.33,3.36-.99,4.88-.66,1.53-1.51,2.06-2.55,1.6-1.96-.81-4.03-1.21-6.22-1.21-2.77,0-5.03.85-6.81,2.52-.77.72-1.46,1.58-2.05,2.62-1.93,3.43-2.89,8.66-2.89,15.68s.96,12.34,2.89,15.77c1.45,2.58,3.53,4.18,6.24,4.82.89.21,1.85.32,2.88.32,1.27,0,2.38-.11,3.33-.35.95-.23,2.03-.55,3.24-.95.34-.11.6-.17.78-.17.98,0,1.73.65,2.25,1.94s.78,2.87.78,4.71c0,.81-.16,1.48-.48,2.03-.32.55-.94.99-1.86,1.34-.98.4-2.28.75-3.89,1.04-1.37.24-2.82.36-4.32.4-.26,0-.51.03-.78.03-7.95,0-13.75-2.49-17.41-7.47-1.15-1.57-2.13-3.43-2.92-5.57-1.71-4.64-2.57-10.6-2.57-17.89,0-.63,0-1.26.02-1.87.22-9.43,2.11-16.52,5.68-21.28,2.59-3.45,6.11-5.72,10.56-6.82ZM225.4,270.43c.59.8,1.12,1.67,1.61,2.6,2.55,4.86,3.83,11.6,3.83,20.25,0,7.76-1.03,13.99-3.08,18.7-.68,1.55-1.46,2.93-2.36,4.15-3.63,4.92-9.1,7.39-16.42,7.39h-15.72c-1.04,0-1.79-.24-2.25-.73-.46-.49-.69-1.31-.69-2.46v-54.09c0-1.15.23-1.97.69-2.46.46-.49,1.21-.73,2.25-.73h15.72c7.31,0,12.79,2.46,16.42,7.39ZM181.16,293.2c0,1.14-.03,2.24-.07,3.31-.77,18.41-8.15,27.62-22.13,27.62s-21.73-9.57-22.26-28.69c-.02-.73-.03-1.48-.03-2.24,0-5.88.61-10.91,1.84-15.11,3.04-10.43,9.86-15.65,20.45-15.65s17.78,5.56,20.65,16.67c1.03,3.98,1.55,8.67,1.55,14.09ZM196.32,368.16v-16.01h-11.13c-.57,0-1.03-.16-1.38-.45-.17-.14-.33-.3-.45-.51-.37-.64-.55-1.63-.55-2.97v-2.37c0-1.34.18-2.33.55-2.97.37-.64.97-.96,1.83-.96h34.5c.77,0,1.34.26,1.74.76.04.05.09.1.13.16.39.61.59,1.61.59,3.01v2.37c0,1.4-.2,2.41-.59,3.01-.4.61-1.02.91-1.87.91h-11.14v51.21c0,1.77-1.55,2.65-4.66,2.65h-2.92c-3.1,0-4.66-.88-4.66-2.65v-35.2ZM117.13,225.39c1.57-16.55,4.16-34.46,8.02-53.56,1.18-5.81,2.44-11.54,3.77-17.2,13.56,2.3,27.88,3.18,42.51,2.53,11.1-.49,21.93-2,32.33-4.32,1.84,6.29,3.63,12.8,5.39,19.53,3.08,11.82,5.71,23.1,7.95,33.85-34.5.84-68.24,7.45-99.97,19.16ZM170.66,139.72c-12.92.58-25.53-.16-37.45-2.08,6.23-22.98,13.75-44.27,22.12-62.73,5.21-2.93,10.51-5.63,15.9-8.09,9.03,18.16,18.5,41.23,27.43,69.28-9.04,1.97-18.46,3.2-28,3.62ZM129.45,92.1c-4.88,13.14-9.36,27.17-13.31,41.86-7.57-2.1-14.71-4.72-21.32-7.86,10.09-12.56,21.69-23.97,34.63-34ZM272.84,117.52c2.23,2.53,4.38,5.09,6.47,7.68-19.37,17.27-31.44,40.79-34.14,66.78-.52,4.97-.67,9.92-.49,14.83-3.26-.21-6.52-.38-9.78-.49-2.6-12.8-5.59-25.67-8.89-38.33-1.72-6.59-3.53-13.19-5.44-19.75,20.66-6.86,38.7-17.4,52.26-30.72ZM249.7,94.5c3.86,3.38,7.57,6.84,11.17,10.39-11.47,11.32-27.32,20.42-45.4,26.53-8.26-25.91-17.81-50.52-28.07-71.18,2.21-.79,4.44-1.54,6.67-2.26,19.42,9.07,38.27,21.37,55.63,36.51Z"/>
  <path class="cls-1" d="M339.76,228.25v32.54c0,4.91,4.03,8.89,9,8.89s9-3.98,9-8.89v-65.4c0-4.91-4.03-8.89-9-8.89s-9,3.98-9,8.89v32.86Z"/>
  <path class="cls-1" d="M384.79,40.65c4.97,0,9-3.95,9-8.82V7.52c0-4.87-4.03-8.82-9-8.82s-9,3.95-9,8.82v24.31c0,4.87,4.03,8.82,9,8.82Z"/>
  <path class="cls-1" d="M384.76,199.18c4.97,0,9-3.95,9-8.82v-36.36c0-4.87-4.03-8.82-9-8.82s-9,3.95-9,8.82v36.36c0,4.87,4.03,8.82,9,8.82Z"/>
  <path class="cls-1" d="M312.67,152.09c-4.97,0-9,3.98-9,8.89v20.13c0,4.91,4.03,8.89,9,8.89s9-3.98,9-8.89v-20.13c0-4.91-4.03-8.89-9-8.89Z"/>
  <path class="cls-1" d="M420.79,105.84c4.97,0,9-3.95,9-8.82v-48.51c0-4.87-4.03-8.82-9-8.82s-9,3.95-9,8.82v48.51c0,4.87,4.03,8.82,9,8.82Z"/>
</svg>