<?xml version="1.0" encoding="UTF-8"?>
<svg id="Layer_1" data-name="Layer 1" xmlns="http://www.w3.org/2000/svg" viewBox="0 0 363.12 480.97">
  <defs>
    <style>
      .cls-1 {
        opacity: .3;
      }

      .cls-1, .cls-2 {
        fill: #566c85;
        stroke-width: 0px;
      }
    </style>
  </defs>
  <g>
    <path class="cls-1" d="M126.37,166.24c-4.28-11.84-8.86-23.09-13.66-33.37l-12.57,7.4c5.53,12.02,11.18,26.22,16.64,42.58l9.59-16.61Z"/>
    <path class="cls-1" d="M121.51,127.69c13.93,7.17,27.44,16.35,40,27.3.94.82,1.85,1.67,2.77,2.5l1.75-12.53c.2-1.44.81-2.74,1.7-3.79-10.06-8.44-20.67-15.83-31.61-22.09l-14.61,8.6Z"/>
    <path class="cls-1" d="M200.96,126.6c-.28-4-3.76-7.02-7.77-6.73-4,.28-7.01,3.77-6.73,7.77.26,3.63-.01,7.27-.81,10.88h13.41c.47,0,.93.04,1.37.13.64-3.98.82-8,.53-12.05Z"/>
    <path class="cls-1" d="M115.06,190.44c-6.31,1.18-12.81,1.94-19.38,2.22-10.76.48-21.26-.13-31.19-1.73,3.52-12.98,7.53-25.3,11.92-36.69l-19.53,11.49c-2.36,7.14-4.57,14.53-6.61,22.13-5.52-1.53-10.75-3.4-15.67-5.59-3.11,3.8-5.62,8.06-7.44,12.6,6.1,2.82,12.64,5.19,19.54,7.08-1.12,4.8-2.19,9.66-3.17,14.58-1.9,9.38-3.49,18.89-4.78,28.36,5.26-3.59,10.67-6.97,16.2-10.16.84-5,1.77-10.1,2.82-15.32.98-4.84,2.03-9.61,3.14-14.33,11.29,1.91,23.22,2.65,35.41,2.11,9.25-.41,18.26-1.66,26.93-3.6.37,1.26.74,2.54,1.1,3.83,2.19-.5,4.38-.98,6.59-1.43.03-.43.05-.85.1-1.29l-13.39-10.44c-1.29-1.01-2.17-2.36-2.59-3.83Z"/>
  </g>
  <g>
    <path class="cls-2" d="M157.71,278.72l-2.36-11.4c-.25-1.29-.46-2.65-.63-4.09h-.26c-.18,1.43-.39,2.8-.63,4.09l-.6,2.94-1.71,8.45h6.2Z"/>
    <path class="cls-2" d="M107.7,267.32c-.25-1.29-.46-2.65-.63-4.09h-.26c-.18,1.43-.39,2.8-.63,4.09l-2.31,11.4h6.2l-2.36-11.4Z"/>
    <path class="cls-2" d="M82.17,283.15c.81-1.77,1.21-4.81,1.21-9.11s-.4-7.34-1.21-9.11c-.81-1.77-2.14-2.66-3.99-2.66h-3.36v23.55h3.36c1.86,0,3.19-.89,3.99-2.66Z"/>
    <path class="cls-2" d="M354.58,184.96c0-20.78-8.25-40.17-23.22-54.6-12.5-12.03-28.29-19.25-45.28-20.85v-4.41c0-4.04-3.3-7.31-7.37-7.31s-7.37,3.27-7.37,7.31v4.45c-5.1.5-10.11,1.52-14.95,3.03v-5.22c0-4.09-3.35-7.4-7.5-7.4s-7.5,3.31-7.5,7.4v11.75c-6.04,3.46-11.64,7.76-16.64,12.86-7.28,7.42-12.85,16.09-16.54,25.49l-1.74-12.47c-.45-3.24-2.93-5.75-6.05-6.33-.45-.08-.91-.13-1.37-.13h-25.6c-2.28,0-4.34,1.03-5.73,2.67-.89,1.05-1.49,2.35-1.7,3.79l-1.75,12.53-.23,1.68c-3.53,1.54-6.87,3.43-9.99,5.66l-15.74-6.38c-3.46-1.4-7.44-.04-9.31,3.2l-2.64,4.58-9.59,16.61-1.01,1.76c-1.05,1.82-1.26,3.93-.71,5.83.42,1.48,1.3,2.83,2.59,3.83l13.39,10.44c-.04.43-.07.86-.1,1.29-2.21.45-4.4.93-6.59,1.43-24.69,5.69-48.02,14.98-69.4,27.31-5.53,3.19-10.94,6.58-16.2,10.16-5.12,3.49-10.11,7.16-14.96,11.01v-43.62c0-6.03,1.18-11.93,3.37-17.4,1.82-4.54,4.32-8.8,7.44-12.6,3.54-4.32,7.85-8.06,12.81-10.97l9.47-5.57,19.53-11.49,23.73-13.97,12.57-7.4,8.8-5.18,14.61-8.6,34.54-20.33c3.57-2.1,4.76-6.69,2.66-10.26-2.1-3.57-6.69-4.76-10.26-2.66l-123.24,72.54c-19.13,11.23-31.02,31.88-31.02,53.9v130.81c0,22.01,11.88,42.67,31.02,53.9l109.09,64.03c9.96,5.85,21.13,8.77,32.3,8.77s22.34-2.92,32.3-8.77l109.09-64.03c19.13-11.23,31.02-31.88,31.02-53.9v-130.81c0-.08,0-.16,0-15.22.64-3.98.98-8.03.98-12.1ZM138.74,174.81l10.34,4.19,3.35,1.36c2.58,1.05,5.54.57,7.66-1.23,3.89-3.3,8.32-5.8,13.18-7.45,2.68-.91,4.63-3.26,5.02-6.06l1.69-12.11h12.55l.69,4.95,1,7.15c.39,2.81,2.33,5.15,5.02,6.06,1.59.54,3.14,1.18,4.63,1.9,2.48,1.19,4.82,2.63,7.01,4.3.52.4,1.03.81,1.54,1.24,1.61,1.36,3.68,1.96,5.71,1.73.66-.08,1.31-.24,1.95-.5l10.87-4.4,2.83-1.14,6.73,11.65-4.84,3.78-6.82,5.32c-2.2,1.71-3.26,4.5-2.77,7.24.13.74.24,1.46.33,2.16.23,1.75.35,3.42.35,5.05,0,1.82-.15,3.69-.44,5.66-.08.51-.15,1.03-.25,1.55-.1.56-.12,1.11-.1,1.66.07,1.66.7,3.24,1.78,4.51.33.38.68.75,1.09,1.07l4.96,3.87,5.96,4.65.74.58-1.47,2.55-.59,1.02-4.31,7.46-.12.21-.23.41-10.2-4.13-3.49-1.42c-.76-.31-1.55-.47-2.35-.52-1.9-.12-3.81.48-5.32,1.75-3.89,3.3-8.32,5.8-13.18,7.45-2.68.91-4.63,3.26-5.02,6.06l-1.69,12.11h-12.55l-1.69-12.11c-.39-2.81-2.33-5.15-5.02-6.06-4.86-1.64-9.29-4.15-13.18-7.45-2.13-1.8-5.08-2.28-7.66-1.23l-4.62,1.87-9.07,3.68-6.73-11.65,11.66-9.09c.06-.05.11-.1.17-.15,2.08-1.72,3.08-4.42,2.6-7.09-.46-2.56-.68-4.92-.68-7.22,0-2.12.2-4.31.59-6.65.03-.19.06-.38.09-.57.38-2.11-.17-4.24-1.44-5.89-.38-.5-.82-.96-1.33-1.35l-11.66-9.09.78-1.36,5.94-10.3ZM168.64,358.28c-.97,0-1.67-.23-2.1-.7-.43-.47-.65-1.25-.65-2.36v-52.58c0-1.6,1.37-2.4,4.12-2.4h2.5c1.45,0,2.5.19,3.15.58.65.39.97.99.97,1.82v46.38h13.73c.75,0,1.29.29,1.62.87.32.58.48,1.48.48,2.69v2.15c0,1.21-.16,2.11-.48,2.69-.32.58-.86.87-1.62.87h-21.73ZM139.96,357.21c0,.2-.08.37-.22.52-.46.48-1.65.72-3.58.72h-4.12c-1.13,0-2.03-.1-2.71-.29-.67-.19-1.17-.56-1.49-1.12l-13.25-26.29-.24.08v25.21c0,1.6-1.43,2.4-4.28,2.4h-2.42c-2.75,0-4.12-.8-4.12-2.4v-53.41c0-1.6,1.37-2.4,4.12-2.4h2.42c2.85,0,4.28.8,4.28,2.4v24.97l.24.08,2.71-5.39,7.82-15.56,2.56-5.09c.27-.55.73-.92,1.37-1.12.65-.19,1.51-.29,2.58-.29h3.39c2.58,0,3.88.39,3.88,1.16,0,.44-.19,1.02-.57,1.74l-.88,1.59-8.96,16.24-4.3,7.8,15.27,26.87c.3.56.45,1.05.48,1.47,0,.03,0,.07,0,.1ZM150.64,255.53c.54-.27,1.3-.42,2.29-.42h3.41c1.93,0,3.01.5,3.26,1.5l8.09,34.19c.07.5.11.83.11.97,0,.79-.75,1.18-2.26,1.18h-2.78c-1.68,0-2.61-.38-2.78-1.13l-1.37-6.56h-7.99l-1.42,6.56c-.14.75-.96,1.13-2.47,1.13h-2.73c-1.53,0-2.36-.33-2.49-.99-.01-.06-.03-.13-.03-.19,0-.01,0-.02,0-.03,0-.28.05-.59.15-.94l8.09-34.19c.12-.48.43-.84.92-1.09ZM144.72,302.65c0-1.65,1.37-2.48,4.12-2.48h2.67c2.69,0,4.04.83,4.04,2.48v53.41c0,.73-.28,1.29-.81,1.7-.66.51-1.73.78-3.23.78h-2.67c-2.75,0-4.12-.83-4.12-2.48v-53.41ZM198.04,348.5v-45.85c0-1.6,1.37-2.4,4.12-2.4h2.5c1.45,0,2.5.19,3.15.58.65.39.97.99.97,1.82v46.38h13.73c.75,0,1.29.29,1.62.87.32.58.48,1.48.48,2.69v2.15c0,1.21-.16,2.11-.48,2.69-.32.58-.86.87-1.62.87h-21.73c-.97,0-1.67-.23-2.1-.7-.43-.47-.65-1.25-.65-2.36v-6.73ZM119.31,257.91c0-.93.12-1.61.37-2.04.24-.43.63-.64,1.16-.64h19.96c.56,0,.96.21,1.21.64.24.43.37,1.11.37,2.04v1.67c0,.93-.12,1.61-.37,2.04-.25.43-.65.64-1.21.64h-5.88v28.98c0,1.15-1.02,1.72-3.05,1.72h-2.15c-2.03,0-3.05-.57-3.05-1.72v-28.98h-5.83c-.53,0-.91-.21-1.16-.64-.25-.43-.37-1.11-.37-2.04v-1.67ZM93.98,290.81l8.09-34.19c.24-1,1.31-1.5,3.2-1.5h3.41c1.93,0,3.01.5,3.26,1.5l8.09,34.19c.07.5.11.83.11.97,0,.79-.75,1.18-2.26,1.18h-2.78c-1.68,0-2.61-.38-2.78-1.13l-1.37-6.56h-7.99l-1.42,6.56c-.14.75-.96,1.13-2.47,1.13h-2.73c-1.68,0-2.52-.39-2.52-1.18,0-.29.05-.61.16-.97ZM94.56,304.71c0,1.21-.3,2.56-.89,4.05-.03.08-.07.15-.1.23-.57,1.33-1.21,2-1.92,2-.32,0-.94-.19-1.86-.58-2.05-.88-4.07-1.32-6.06-1.32-2.32,0-4.07.59-5.25,1.78-1.19,1.19-1.78,2.66-1.78,4.42,0,1.49.31,2.74.93,3.76.62,1.02,1.4,1.87,2.34,2.56.69.51,1.61,1.09,2.75,1.76.42.24.85.5,1.33.76.86.44,1.37.72,1.53.83,3.82,2.15,6.65,4.45,8.48,6.9,1.83,2.45,2.75,5.77,2.75,9.96,0,3.2-.66,6.09-1.98,8.68-1.32,2.59-3.29,4.63-5.9,6.12-2.61,1.49-5.75,2.23-9.41,2.23-2.58,0-5.1-.37-7.55-1.12-2.45-.74-4.35-1.78-5.7-3.1-.32-.5-.57-.92-.73-1.28-.16-.36-.24-.81-.24-1.36,0-1.32.32-2.69.97-4.09.65-1.41,1.37-2.11,2.18-2.11.38,0,.92.21,1.62.62.7.41,1.16.68,1.37.79,2.42,1.54,4.93,2.31,7.51,2.31,2.1,0,3.88-.55,5.33-1.65,1.45-1.1,2.18-2.81,2.18-5.13s-.66-4.05-1.98-5.37c-1.32-1.32-3.3-2.67-5.94-4.05-2.75-1.54-5-3.03-6.75-4.46-1.75-1.43-3.12-3.18-4.12-5.25-.19-.4-.35-.84-.51-1.27-.65-1.8-.98-3.86-.98-6.21,0-3.15.65-5.92,1.93-8.3.08-.15.16-.31.25-.47,1.45-2.48,3.45-4.38,5.98-5.7,2.53-1.32,5.44-1.98,8.72-1.98,1.83,0,3.72.26,5.65.79,1.94.52,3.5,1.2,4.69,2.03.75.55,1.13,1.3,1.13,2.23ZM66.51,257.37c0-.75.16-1.3.47-1.64.32-.34.81-.51,1.47-.51h9.98c4.55,0,7.91,1.56,10.06,4.68,2.15,3.12,3.23,7.83,3.23,14.14s-1.08,11.02-3.23,14.14c-2.15,3.12-5.51,4.68-10.06,4.68h-9.98c-.67,0-1.16-.17-1.47-.51-.32-.34-.47-.89-.47-1.64v-33.33ZM79.72,391.74c-.14.24-.4.43-.79.58-.42.18-.97.33-1.65.45-.68.13-1.41.19-2.16.19-3.37,0-5.83-1.08-7.38-3.24-1.46-2.03-2.22-5.17-2.31-9.37,0-.27-.02-.53-.02-.81,0-4.5.81-7.85,2.42-10.05.95-1.29,2.2-2.2,3.74-2.73,1.08-.37,2.29-.57,3.66-.57s2.47.16,3.37.49c.37.13.62.31.77.56.13.23.19.53.18.88,0,.03,0,.06,0,.1,0,.75-.14,1.46-.42,2.12-.28.66-.64.89-1.08.69-.83-.35-1.71-.53-2.64-.53-1.69,0-2.94.75-3.76,2.23-.82,1.49-1.23,3.76-1.23,6.81,0,.65.02,1.25.06,1.83.14,2.16.52,3.84,1.17,5.02.82,1.49,2.11,2.23,3.87,2.23.54,0,1.01-.05,1.41-.15.4-.1.86-.24,1.37-.41.15-.05.26-.07.33-.07.41,0,.73.28.95.84s.33,1.24.33,2.04c0,.35-.07.64-.2.88ZM96.01,391.08c0,.58-.07.99-.22,1.24-.15.25-.38.38-.7.38h-10.74c-.44,0-.76-.11-.95-.32-.2-.21-.29-.57-.29-1.07v-23.47c0-.5.1-.86.29-1.07.2-.21.51-.32.95-.32h10.7c.34,0,.59.13.73.39.15.26.22.67.22,1.22v.97c0,.13,0,.25-.01.37-.03.37-.1.65-.21.85-.15.26-.39.39-.73.39h-7.07v6.52h6.3c.34,0,.59.13.73.39s.22.67.22,1.22v.98c0,.55-.07.95-.22,1.22-.15.26-.39.39-.73.39h-6.3v7.12h7.11c.32,0,.55.13.7.37.15.25.22.66.22,1.24v.97ZM113.67,392.73h-1.06c-1.15,0-1.78-.29-1.9-.86l-2.02-7.2c-.13-.38-.27-.69-.42-.96-.18-.34-.38-.62-.59-.8-.38-.33-.96-.49-1.74-.49h-1.36v9.26c0,.73-.65,1.09-1.94,1.09h-.99c-1.27,0-1.91-.36-1.91-1.09v-23.85c0-.47.1-.82.31-1.05.21-.22.53-.34.97-.34h5.9c2.77,0,4.76.76,5.97,2.28.93,1.17,1.39,2.78,1.39,4.85,0,2.98-1.15,5.09-3.44,6.34v.15c.85.48,1.59,1.57,2.22,3.28.09.26.19.52.27.81l2.2,7.24c.02.07.05.16.07.24.02.09.04.17.04.24,0,.57-.66.86-1.98.86ZM127.04,391.68c0,.73-.62,1.09-1.87,1.09h-1.17c-1.25,0-1.87-.36-1.87-1.09v-21.04h-4.47c-.34,0-.59-.13-.73-.39-.15-.26-.22-.67-.22-1.22v-.97c0-.55.07-.96.22-1.22.15-.26.39-.39.73-.39h13.85c.34,0,.59.13.75.37.16.25.24.66.24,1.24v.97c0,.58-.08.99-.24,1.24-.16.25-.41.38-.75.38h-4.47v21.04ZM140.16,391.68c0,.75-.61,1.13-1.83,1.13h-1.21c-1.25,0-1.87-.38-1.87-1.13v-24.22c0-.75.62-1.12,1.87-1.12h1.21c1.22,0,1.83.37,1.83,1.12v24.22ZM156.47,380.51c0,1.08-.31,1.61-.92,1.61h-5.83v9.56c0,.38-.15.65-.44.82-.29.18-.77.26-1.43.26h-1.14c-1.25,0-1.87-.36-1.87-1.09v-23.85c0-.5.1-.86.29-1.07.2-.21.51-.32.95-.32h9.89c.61,0,.92.54.92,1.61v.97c0,1.08-.31,1.61-.92,1.61h-6.27v7.27h5.83c.61,0,.92.54.92,1.61v.98ZM165.26,391.68c0,.75-.61,1.13-1.83,1.13h-1.21c-1.25,0-1.87-.38-1.87-1.13v-24.22c0-.75.62-1.12,1.87-1.12h1.21c1.22,0,1.83.37,1.83,1.12v24.22ZM183.42,391.74c-.14.24-.4.43-.79.58-.42.18-.97.33-1.65.45-.68.13-1.41.19-2.16.19-3.37,0-5.83-1.08-7.38-3.24-1.55-2.16-2.33-5.56-2.33-10.18s.81-7.85,2.42-10.05c1.61-2.2,4.08-3.3,7.4-3.3,1.34,0,2.47.16,3.37.49.37.13.62.31.77.56s.21.58.18.97c0,.75-.14,1.46-.42,2.12-.28.66-.64.89-1.08.69-.83-.35-1.71-.53-2.64-.53-1.69,0-2.94.75-3.76,2.23-.82,1.49-1.23,3.76-1.23,6.81s.41,5.36,1.23,6.84c.82,1.49,2.11,2.23,3.87,2.23.54,0,1.01-.05,1.41-.15.4-.1.86-.24,1.37-.41.15-.05.26-.07.33-.07.41,0,.73.28.95.84s.33,1.24.33,2.04c0,.35-.07.64-.2.88ZM201.21,392.77h-1.47c-1.05,0-1.63-.24-1.72-.71l-1.17-5.14h-6.38l-1.17,5.14c-.1.47-.62.71-1.58.71h-1.47c-1.08,0-1.61-.25-1.61-.75,0-.07.02-.29.07-.64l6.01-24.08c.15-.62.81-.94,1.98-.94h1.94c1.17,0,1.84.31,2.02.94l5.97,24.08c.05.35.07.56.07.64,0,.5-.5.75-1.5.75ZM218.21,369.03c0,.58-.08.99-.24,1.24-.16.25-.41.38-.75.38h-4.47v21.04c0,.73-.62,1.09-1.87,1.09h-1.17c-1.25,0-1.87-.36-1.87-1.09v-21.04h-4.47c-.34,0-.59-.13-.73-.39-.15-.26-.22-.67-.22-1.22v-.97c0-.55.07-.96.22-1.22.15-.26.39-.39.73-.39h13.85c.34,0,.59.13.75.37.16.25.24.66.24,1.24v.97ZM225.87,391.68c0,.75-.61,1.13-1.83,1.13h-1.21c-1.25,0-1.87-.38-1.87-1.13v-24.22c0-.75.62-1.12,1.87-1.12h1.21c1.22,0,1.83.37,1.83,1.12v24.22ZM239.2,392.95c-6.3,0-9.45-4.48-9.45-13.43s3.15-13.35,9.45-13.35,9.42,4.45,9.42,13.35-3.14,13.43-9.42,13.43ZM269.62,391.68c0,.73-.62,1.09-1.87,1.09h-.73c-.44,0-.81-.06-1.1-.19-.29-.13-.51-.36-.66-.71l-7.58-14.33c-.24-.45-.57-1.24-.99-2.36l-.18.07c.2.93.29,1.78.29,2.55v13.87c0,.73-.62,1.09-1.87,1.09h-.73c-1.25,0-1.87-.36-1.87-1.09v-24.22c0-.72.62-1.09,1.87-1.09h.95c.44,0,.79.06,1.06.19.27.13.49.37.66.75l7.26,13.8c.29.55.67,1.46,1.14,2.74l.18-.07c-.2-1-.29-1.94-.29-2.81v-13.5c0-.72.62-1.09,1.87-1.09h.73c1.25,0,1.87.36,1.87,1.09v24.22ZM286.2,389.17c-.6,1.17-1.49,2.1-2.68,2.78s-2.61,1.01-4.27,1.01c-1.17,0-2.31-.17-3.43-.51-1.11-.34-1.97-.81-2.58-1.41-.15-.22-.26-.42-.33-.58-.07-.16-.11-.37-.11-.62,0-.6.15-1.22.44-1.86s.62-.96.99-.96c.17,0,.42.09.73.28.32.19.53.31.62.36,1.1.7,2.24,1.05,3.41,1.05.95,0,1.76-.25,2.42-.75.66-.5.99-1.28.99-2.32s-.3-1.84-.9-2.44c-.6-.6-1.5-1.21-2.69-1.84-1.25-.7-2.27-1.37-3.06-2.03s-1.42-1.44-1.87-2.38-.68-2.07-.68-3.39c0-1.52.33-2.85.99-3.98.66-1.12,1.56-1.99,2.71-2.59,1.15-.6,2.47-.9,3.96-.9.83,0,1.69.12,2.56.36.88.24,1.59.54,2.13.92.34.25.51.59.51,1.01,0,.55-.13,1.16-.4,1.84-.27.68-.57,1.01-.92,1.01-.15,0-.43-.09-.84-.26-.93-.4-1.84-.6-2.75-.6-1.05,0-1.84.27-2.38.81-.54.54-.81,1.21-.81,2.01,0,.68.14,1.24.42,1.71.28.46.63.85,1.06,1.16.43.31,1.04.69,1.85,1.14.39.2.62.33.7.37,1.73.98,3.02,2.02,3.85,3.13.83,1.11,1.25,2.62,1.25,4.52,0,1.45-.3,2.76-.9,3.94ZM286.32,320.42h-15.05c-7.9,0-14.61-5.14-16.99-12.25h49.02c-2.38,7.11-9.09,12.25-16.99,12.25ZM304.24,283.26v9.91h-50.89v-10.44h50.89v.53ZM338.62,255.6c-2.87-2.27-5.8-4.48-8.77-6.63l7.05-13.38c.55-1.04,1.13-2.08,1.71-3.1v23.12ZM330.38,217.14c-2.23,3.57-4.59,7.4-6.74,11.47l-6.27,11.91-14.35,27.23h-48.45l-3.16-5.99-4.71-8.94,8.11-14.05,1.93-3.35c1.79-3.1,1.12-7.01-1.53-9.36-.12-.1-.23-.21-.35-.3l-13.39-10.44c.18-1.8.27-3.55.27-5.3,0-.6-.03-1.21-.05-1.81-.04-1.15-.11-2.31-.23-3.49l10.61-8.27,2.78-2.16c2.95-2.3,3.75-6.42,1.88-9.66l-13.25-22.95c-1.02-1.76-2.65-2.96-4.49-3.47-1.54-.43-3.23-.37-4.81.27l-7.69,3.11-4.52,1.83c1.23-3.21,2.75-6.31,4.52-9.28,1.69-2.84,3.62-5.55,5.77-8.12,1.02-1.21,2.07-2.4,3.19-3.55,1.88-1.91,3.86-3.68,5.93-5.31v.72c0,4.09,3.35,7.4,7.5,7.4s7.5-3.31,7.5-7.4v-9.4c6.34-2.54,13.1-4,20.05-4.26,8.68-.33,17.1,1.15,24.88,4.26v42.82c0,4.04,3.3,7.31,7.37,7.31s7.37-3.27,7.37-7.31v-34.36c1.69,1.32,3.33,2.73,4.9,4.24,12.01,11.57,18.63,27.12,18.63,43.8,0,11.42-3.19,22.54-9.21,32.18Z"/>
    <path class="cls-2" d="M193.73,371.54h-.18c-.12.97-.27,1.86-.44,2.66l-1.94,8.74h4.98l-1.98-8.74c-.17-.8-.32-1.69-.44-2.66Z"/>
    <path class="cls-2" d="M239.24,370.38c-1.54,0-2.68.69-3.41,2.08-.73,1.39-1.1,3.74-1.1,7.07s.37,5.7,1.1,7.11,1.87,2.12,3.41,2.12,2.6-.71,3.33-2.12,1.1-3.78,1.1-7.11-.36-5.68-1.08-7.07c-.72-1.39-1.84-2.08-3.35-2.08Z"/>
    <path class="cls-2" d="M107.04,370.64h-2.49v7.2h2.64c.66,0,1.22-.34,1.69-1.01.46-.68.7-1.57.7-2.7,0-1.2-.23-2.08-.68-2.65-.45-.56-1.07-.84-1.85-.84Z"/>
    <path class="cls-2" d="M186.26,233.81c10.83,0,19.96-7.28,22.84-17.19.11-.38.23-.75.32-1.14.42-1.76.64-3.59.64-5.48,0-2.65-.44-5.19-1.24-7.57-1.12-3.32-2.95-6.31-5.31-8.8-3.32-3.49-7.68-5.98-12.58-6.96-1.51-.3-3.07-.47-4.67-.47-10.14,0-18.82,6.38-22.24,15.34-1.01,2.63-1.56,5.48-1.56,8.47,0,13.13,10.68,23.8,23.8,23.8ZM186.26,201.2c4.86,0,8.81,3.95,8.81,8.81s-3.95,8.81-8.81,8.81-8.81-3.95-8.81-8.81,3.95-8.81,8.81-8.81Z"/>
    <path class="cls-2" d="M278.64,55.32c4.14,0,7.5-3.29,7.5-7.35v-30.28c0-4.06-3.35-7.35-7.5-7.35s-7.5,3.29-7.5,7.35v30.28c0,4.06,3.36,7.35,7.5,7.35Z"/>
    <path class="cls-2" d="M308.86,59.48c-4.14,0-7.5,3.29-7.5,7.35v30.28c0,4.06,3.35,7.35,7.5,7.35s7.5-3.29,7.5-7.35v-30.28c0-4.06-3.35-7.35-7.5-7.35Z"/>
    <path class="cls-2" d="M278.71,144.43c-4.07,0-7.37,3.27-7.37,7.31v93.66c0,4.04,3.3,7.31,7.37,7.31s7.37-3.27,7.37-7.31v-93.66c0-4.04-3.3-7.31-7.37-7.31Z"/>
    <path class="cls-2" d="M278.71,66.14c-4.07,0-7.37,3.27-7.37,7.31v7.88c0,4.04,3.3,7.31,7.37,7.31s7.37-3.27,7.37-7.31v-7.88c0-4.04-3.3-7.31-7.37-7.31Z"/>
    <path class="cls-2" d="M308.6,48.65c4.12,0,7.47-3.27,7.47-7.31v-7.88c0-4.04-3.34-7.31-7.47-7.31s-7.47,3.27-7.47,7.31v7.88c0,4.04,3.34,7.31,7.47,7.31Z"/>
    <path class="cls-2" d="M248.6,89.13c4.07,0,7.37-3.27,7.37-7.31v-38.69c0-4.04-3.3-7.31-7.37-7.31s-7.37,3.27-7.37,7.31v38.69c0,4.04,3.3,7.31,7.37,7.31Z"/>
  </g>
</svg>