<svg id="Layer_1" data-name="Layer 1" xmlns="http://www.w3.org/2000/svg" viewBox="0 0 359.93 414"><defs><style>.cls-1{fill:#3eacad;}.cls-2{fill:#de6d26;}.cls-3{fill:#113053;}</style></defs><path class="cls-1" d="M72,108.09a8.91,8.91,0,0,1,9,8.82v36.36a9,9,0,0,1-18,0V116.91A8.91,8.91,0,0,1,72,108.09Z"/><path class="cls-1" d="M108,72.09a8.91,8.91,0,0,1,9,8.82v36.36a9,9,0,0,1-18,0V80.91A8.91,8.91,0,0,1,108,72.09Z"/><path class="cls-1" d="M144,125.71a8.91,8.91,0,0,1,9,8.82v36.36a9,9,0,0,1-18,0V134.53A8.91,8.91,0,0,1,144,125.71Z"/><path class="cls-2" d="M108.08,144.09a8.8,8.8,0,0,1,8.85,8.77v9.46a8.85,8.85,0,0,1-17.7,0v-9.46A8.8,8.8,0,0,1,108.08,144.09Z"/><path class="cls-2" d="M144,80.71a8.86,8.86,0,0,1,9,8.77v9.46a9,9,0,0,1-17.93,0V89.48A8.86,8.86,0,0,1,144,80.71Z"/><path class="cls-3" d="M267.82,130.61,209.38,96.68a9,9,0,0,0-9,15.56l58.45,33.92a40.72,40.72,0,0,1,9.61,7.81A218.7,218.7,0,0,0,242.85,159h0a179,179,0,0,0-129.2,132.88l-12.46-7.24A40.75,40.75,0,0,1,81,249.55V188.94a9,9,0,1,0-18,0v60.61a58.79,58.79,0,0,0,29.17,50.69l58.45,33.93a58.65,58.65,0,0,0,58.76,0l58.44-33.93A58.78,58.78,0,0,0,297,249.55V181.3A58.78,58.78,0,0,0,267.82,130.61ZM279,181.3v.36a91,91,0,0,0-10.18-10.94c2.73-.39,5.56-.72,8.46-1A40.49,40.49,0,0,1,279,181.3Zm-32.2-6.1c2.75-.68,7,1.74,12.15,7.19-2-.29-4-.58-5.93-.8a153.5,153.5,0,0,0-23.28-.88A161.74,161.74,0,0,1,246.83,175.2ZM260.55,211c-10.92,21.29-20.6,47.24-28.26,75.7a121.43,121.43,0,0,1-25.58-10.16,75.56,75.56,0,0,1-20.15-15.32,225.22,225.22,0,0,1,43.89-34.73A242,242,0,0,1,260.55,211Zm-76.35-.62c17.33-10.5,39.55-14.85,64.72-12.41a257.51,257.51,0,0,0-27.12,14.3,243.78,243.78,0,0,0-44.27,34.45,35.09,35.09,0,0,1-2.19-10.56C175,227.29,178,218.52,184.2,210.33Zm-25.49,23.86c0,.89,0,1.76,0,2.66a52.62,52.62,0,0,0,6.48,23,202.59,202.59,0,0,0-29.59,44.86l-6.8-3.95A163.42,163.42,0,0,1,158.71,234.19Zm41.65,84.42a40.64,40.64,0,0,1-40.72,0l-9.59-5.56a183.07,183.07,0,0,1,25.28-39.48,94.31,94.31,0,0,0,23.42,17.54,137.36,137.36,0,0,0,29.09,11.55Zm58.45-33.93-9.6,5.57-.65-.09c8.17-30.13,18.71-57.34,30.47-78.54v37.93A40.75,40.75,0,0,1,258.81,284.68Z"/></svg>