<svg id="Layer_1" data-name="Layer 1" xmlns="http://www.w3.org/2000/svg" viewBox="0 0 864 414"><defs><style>.cls-1{fill:#113053;}.cls-2{font-size:50.16px;font-family:AndesBold, Andes;}.cls-2,.cls-8{fill:#3eacad;}.cls-3{letter-spacing:-0.03em;}.cls-4{letter-spacing:-0.01em;}.cls-5{letter-spacing:-0.01em;}.cls-6{letter-spacing:0em;}.cls-7{letter-spacing:-0.01em;}.cls-9{fill:#de6d26;}</style></defs><path class="cls-1" d="M362.16,153.37H341.27v71.91h23.84c20.33,0,32-12.66,32-34.75C397.11,167.27,384,153.37,362.16,153.37Zm20,37c0,13.91-6.42,22.21-17.16,22.21H356.3V166.11H362C375.37,166.11,382.17,174.26,382.17,190.33Z"/><path class="cls-1" d="M438.29,153.37h-14.9l-25.8,71.91h15.74l5.8-17.61h23.32l6,17.61h15.63l-25.62-71.42Zm.22,42.27H423.25l7.55-22.54Z"/><polygon class="cls-1" points="520.29 153.37 459.04 153.37 459.04 166.11 482.64 166.11 482.64 225.28 497.58 225.28 497.58 166.11 520.29 166.11 520.29 153.37"/><path class="cls-1" d="M554.65,153.37h-14.9L514,225.28h15.74l5.8-17.61h23.33l6,17.61h15.63l-25.62-71.42Zm.22,42.27H539.62l7.54-22.54Z"/><polygon class="cls-1" points="626.56 153.37 611.53 153.37 611.53 225.28 656.95 225.28 656.95 212.54 626.56 212.54 626.56 153.37"/><path class="cls-1" d="M703.26,153.37H688.37l-25.8,71.91H678.3l5.8-17.61h23.33l6,17.61h15.63l-25.62-71.42Zm.23,42.27H688.23l7.54-22.54Z"/><path class="cls-1" d="M779.5,187.38c3.41-1.25,7.79-4.78,7.79-14.66,0-12.84-7.73-19.35-23-19.35H737.54v71.91h29.64c15.72,0,24.73-7.46,24.73-20.46C791.91,194.06,784.89,189,779.5,187.38Zm-16.74-4.62H752.58V166.11h8.31c7.28,0,11,2.77,11,8.22C771.86,180.08,769,182.76,762.76,182.76ZM752.58,194h11.36c5.22,0,11.45,1.61,11.45,9.32,0,6.3-3.54,9.23-11.16,9.23H752.58Z"/><text class="cls-2" transform="translate(341.51 287.34) scale(0.98 1)">THE<tspan class="cls-3" x="94.55" y="0"> </tspan><tspan class="cls-4" x="104.28" y="0">W</tspan><tspan x="154.64" y="0">ORLD </tspan><tspan class="cls-5" x="295.18" y="0">B</tspan><tspan class="cls-6" x="327.03" y="0">AN</tspan><tspan class="cls-7" x="395.39" y="0">K</tspan></text><path class="cls-8" d="M81.15,108.09a8.9,8.9,0,0,1,9,8.82v36.36a9,9,0,0,1-18,0V116.91A8.91,8.91,0,0,1,81.15,108.09Z"/><path class="cls-8" d="M117.15,72.09a8.9,8.9,0,0,1,9,8.82v36.36a9,9,0,0,1-18,0V80.91A8.91,8.91,0,0,1,117.15,72.09Z"/><path class="cls-8" d="M153.15,125.71a8.9,8.9,0,0,1,9,8.82v36.36a9,9,0,0,1-18,0V134.53A8.91,8.91,0,0,1,153.15,125.71Z"/><path class="cls-9" d="M117.23,144.09a8.8,8.8,0,0,1,8.85,8.77v9.46a8.85,8.85,0,0,1-17.7,0v-9.46A8.8,8.8,0,0,1,117.23,144.09Z"/><path class="cls-9" d="M153.12,80.71a8.86,8.86,0,0,1,9,8.77v9.46a9,9,0,0,1-17.93,0V89.48A8.87,8.87,0,0,1,153.12,80.71Z"/><path class="cls-1" d="M277,130.61,218.54,96.68a9,9,0,1,0-9,15.56L268,146.16a40.57,40.57,0,0,1,9.62,7.81A217.89,217.89,0,0,0,252,159h0a179,179,0,0,0-129.2,132.88l-12.46-7.24a40.72,40.72,0,0,1-20.22-35.13V188.94a9,9,0,0,0-18,0v60.61a58.78,58.78,0,0,0,29.18,50.69l58.44,33.93a58.66,58.66,0,0,0,58.77,0L277,300.24a58.79,58.79,0,0,0,29.17-50.69V181.3A58.79,58.79,0,0,0,277,130.61Zm11.2,50.69v.36A90.15,90.15,0,0,0,278,170.72c2.72-.39,5.56-.72,8.45-1A40.49,40.49,0,0,1,288.18,181.3ZM256,175.2c2.74-.68,7,1.74,12.14,7.19-2-.29-4-.58-5.93-.8a153.46,153.46,0,0,0-23.28-.88A161.92,161.92,0,0,1,256,175.2ZM269.71,211c-10.93,21.29-20.61,47.24-28.26,75.7a121.73,121.73,0,0,1-25.59-10.16,75.72,75.72,0,0,1-20.15-15.32,225.52,225.52,0,0,1,43.89-34.73A242.12,242.12,0,0,1,269.71,211Zm-76.36-.62c17.33-10.5,39.56-14.85,64.72-12.41A258.5,258.5,0,0,0,231,212.22a244.48,244.48,0,0,0-44.27,34.45,35.07,35.07,0,0,1-2.18-10.56C184.11,227.29,187.19,218.52,193.35,210.33Zm-25.48,23.86c0,.89,0,1.76,0,2.66a52.48,52.48,0,0,0,6.48,23,202.64,202.64,0,0,0-29.6,44.86l-6.8-3.95A163.31,163.31,0,0,1,167.87,234.19Zm41.65,84.42a40.66,40.66,0,0,1-40.73,0l-9.58-5.56a183.07,183.07,0,0,1,25.28-39.48,94.13,94.13,0,0,0,23.42,17.54A137.06,137.06,0,0,0,237,302.66ZM268,284.68l-9.59,5.57-.66-.09c8.17-30.13,18.71-57.34,30.47-78.54v37.93A40.75,40.75,0,0,1,268,284.68Z"/></svg>