<svg id="Layer_1" data-name="Layer 1" xmlns="http://www.w3.org/2000/svg" viewBox="0 0 864 414"><defs><style>.cls-1,.cls-2{fill:#fff;}.cls-2{font-size:50.16px;font-family:AndesBold, Andes;}.cls-3{letter-spacing:-0.03em;}.cls-4{letter-spacing:-0.01em;}.cls-5{letter-spacing:-0.01em;}.cls-6{letter-spacing:0em;}.cls-7{letter-spacing:-0.01em;}.cls-8{fill:#3eacad;}.cls-9{fill:#de6d26;}</style></defs><path class="cls-1" d="M362,153.37H341.11v71.91H365c20.34,0,32-12.66,32-34.75C397,167.27,383.89,153.37,362,153.37Zm20,37c0,13.91-6.42,22.21-17.17,22.21h-8.7V166.11h5.66C375.22,166.11,382,174.26,382,190.33Z"/><path class="cls-1" d="M438.13,153.37H423.24l-25.8,71.91h15.73l5.8-17.61H442.3l6,17.61h15.63l-25.62-71.42Zm.23,42.27H423.1l7.54-22.54Z"/><polygon class="cls-1" points="520.14 153.37 458.89 153.37 458.89 166.11 482.48 166.11 482.48 225.28 497.42 225.28 497.42 166.11 520.14 166.11 520.14 153.37"/><path class="cls-1" d="M554.49,153.37H539.6l-25.8,71.91h15.73l5.81-17.61h23.32l6,17.61h15.63l-25.62-71.42Zm.23,42.27H539.46L547,173.1Z"/><polygon class="cls-1" points="626.41 153.37 611.37 153.37 611.37 225.28 656.79 225.28 656.79 212.54 626.41 212.54 626.41 153.37"/><path class="cls-1" d="M703.11,153.37h-14.9l-25.8,71.91h15.74l5.8-17.61h23.33l6,17.61h15.63l-25.63-71.42Zm.22,42.27H688.08l7.54-22.54Z"/><path class="cls-1" d="M779.34,187.38c3.42-1.25,7.79-4.78,7.79-14.66,0-12.84-7.72-19.35-23-19.35H737.39v71.91H767c15.71,0,24.72-7.46,24.72-20.46C791.75,194.06,784.74,189,779.34,187.38Zm-16.74-4.62H752.42V166.11h8.32c7.27,0,11,2.77,11,8.22C771.7,180.08,768.81,182.76,762.6,182.76ZM752.42,194h11.36c5.23,0,11.46,1.61,11.46,9.32,0,6.3-3.55,9.23-11.16,9.23H752.42Z"/><text class="cls-2" transform="translate(341.36 287.34) scale(0.98 1)">THE<tspan class="cls-3" x="94.55" y="0"> </tspan><tspan class="cls-4" x="104.28" y="0">W</tspan><tspan x="154.64" y="0">ORLD </tspan><tspan class="cls-5" x="295.18" y="0">B</tspan><tspan class="cls-6" x="327.03" y="0">AN</tspan><tspan class="cls-7" x="395.39" y="0">K</tspan></text><path class="cls-8" d="M81,108.09a8.91,8.91,0,0,1,9,8.82v36.36a9,9,0,0,1-18,0V116.91A8.91,8.91,0,0,1,81,108.09Z"/><path class="cls-8" d="M117,72.09a8.91,8.91,0,0,1,9,8.82v36.36a9,9,0,0,1-18,0V80.91A8.91,8.91,0,0,1,117,72.09Z"/><path class="cls-8" d="M153,125.71a8.91,8.91,0,0,1,9,8.82v36.36a9,9,0,0,1-18,0V134.53A8.91,8.91,0,0,1,153,125.71Z"/><path class="cls-9" d="M117.08,144.09a8.8,8.8,0,0,1,8.85,8.77v9.46a8.85,8.85,0,0,1-17.7,0v-9.46A8.8,8.8,0,0,1,117.08,144.09Z"/><path class="cls-9" d="M153,80.71a8.86,8.86,0,0,1,9,8.77v9.46a9,9,0,0,1-17.93,0V89.48A8.86,8.86,0,0,1,153,80.71Z"/><path class="cls-1" d="M276.82,130.61,218.38,96.68a9,9,0,0,0-9,15.56l58.45,33.92a40.72,40.72,0,0,1,9.61,7.81A218.7,218.7,0,0,0,251.85,159h0a179,179,0,0,0-129.2,132.88l-12.46-7.24A40.75,40.75,0,0,1,90,249.55V188.94a9,9,0,1,0-18,0v60.61a58.79,58.79,0,0,0,29.17,50.69l58.45,33.93a58.65,58.65,0,0,0,58.76,0l58.44-33.93A58.78,58.78,0,0,0,306,249.55V181.3A58.78,58.78,0,0,0,276.82,130.61ZM288,181.3v.36a91,91,0,0,0-10.18-10.94c2.73-.39,5.56-.72,8.46-1A40.49,40.49,0,0,1,288,181.3Zm-32.2-6.1c2.75-.68,7,1.74,12.15,7.19-2-.29-4-.58-5.93-.8a153.5,153.5,0,0,0-23.28-.88A161.74,161.74,0,0,1,255.83,175.2ZM269.55,211c-10.92,21.29-20.6,47.24-28.26,75.7a121.43,121.43,0,0,1-25.58-10.16,75.56,75.56,0,0,1-20.15-15.32,225.22,225.22,0,0,1,43.89-34.73A242,242,0,0,1,269.55,211Zm-76.35-.62c17.33-10.5,39.55-14.85,64.72-12.41a257.51,257.51,0,0,0-27.12,14.3,243.78,243.78,0,0,0-44.27,34.45,35.09,35.09,0,0,1-2.19-10.56C184,227.29,187,218.52,193.2,210.33Zm-25.49,23.86c0,.89,0,1.76,0,2.66a52.62,52.62,0,0,0,6.48,23,202.59,202.59,0,0,0-29.59,44.86l-6.8-3.95A163.42,163.42,0,0,1,167.71,234.19Zm41.65,84.42a40.64,40.64,0,0,1-40.72,0l-9.59-5.56a183.07,183.07,0,0,1,25.28-39.48,94.31,94.31,0,0,0,23.42,17.54,137.36,137.36,0,0,0,29.09,11.55Zm58.45-33.93-9.6,5.57-.65-.09c8.17-30.13,18.71-57.34,30.47-78.54v37.93A40.75,40.75,0,0,1,267.81,284.68Z"/></svg>